<?xml version="1.0" standalone="no"?>
<!DOCTYPE svg PUBLIC "-//W3C//DTD SVG 20010904//EN"
 "http://www.w3.org/TR/2001/REC-SVG-20010904/DTD/svg10.dtd">
<svg version="1.0" xmlns="http://www.w3.org/2000/svg"
 width="1200.000000pt" height="1200.000000pt" viewBox="0 0 1200.000000 1200.000000"
 preserveAspectRatio="xMidYMid meet">
<metadata>
Created by potrace 1.11, written by Peter Selinger 2001-2013
</metadata>
<g transform="translate(0.000000,1200.000000) scale(0.100000,-0.100000)"
fill="#000000" stroke="none">
<path d="M5778 9575 c-2 -1 -29 -5 -61 -9 -293 -31 -624 -221 -808 -465 l-49
-63 -17 31 c-101 181 -228 301 -362 341 -285 84 -614 -1 -845 -219 -99 -94
-156 -186 -242 -393 -48 -117 -127 -273 -166 -332 -105 -154 -264 -266 -436
-306 -97 -23 -116 -60 -50 -100 174 -106 627 -166 883 -117 164 32 311 110
425 226 75 76 104 123 185 306 36 80 77 129 128 154 68 33 124 28 227 -20 97
-45 90 -32 74 -139 -9 -59 -9 -221 0 -290 34 -262 162 -517 353 -707 334 -331
822 -444 1266 -292 314 107 565 328 713 629 123 252 153 574 79 861 -66 254
-234 499 -454 665 -151 113 -363 201 -551 229 -45 7 -286 15 -292 10z"/>
<path d="M4125 7309 c-97 -15 -162 -38 -300 -107 -139 -69 -333 -177 -402
-224 -23 -15 -44 -28 -46 -28 -18 0 -467 -321 -523 -374 -6 -6 -36 -31 -65
-56 -105 -88 -156 -136 -324 -305 -177 -178 -198 -201 -280 -300 -28 -33 -53
-62 -56 -65 -21 -17 -247 -327 -317 -435 -46 -71 -93 -142 -103 -157 -11 -15
-19 -30 -19 -32 0 -3 -15 -29 -34 -58 -87 -138 -288 -536 -376 -748 -29 -69
-58 -138 -66 -155 -7 -16 -23 -57 -34 -90 -12 -33 -44 -123 -72 -200 -28 -77
-56 -160 -63 -185 -7 -25 -29 -97 -49 -160 -20 -63 -38 -124 -41 -135 -3 -11
-32 -126 -65 -255 -50 -194 -109 -460 -135 -605 -37 -209 -45 -255 -45 -262 0
-9 2265 -12 2273 -3 3 3 8 48 12 100 4 52 8 113 10 135 2 22 6 72 10 110 3 39
8 86 10 105 2 19 7 60 10 91 3 31 7 65 9 75 2 11 7 48 11 84 3 36 8 72 10 80
3 8 7 35 10 60 4 35 49 265 80 412 2 9 13 52 26 95 12 43 22 83 23 88 4 17 37
129 43 145 3 8 7 20 9 25 21 86 123 332 200 483 132 259 266 445 461 641 l124
124 126 -189 c70 -104 292 -439 494 -744 417 -630 468 -694 609 -763 154 -75
55 -70 1495 -71 710 0 1322 3 1360 7 352 33 503 182 488 485 -12 258 -192 440
-477 482 -33 4 -529 9 -1101 9 -571 1 -1043 5 -1047 9 -4 4 -16 32 -27 62 -45
128 -123 345 -366 1010 -141 388 -274 752 -295 810 -124 341 -150 411 -175
461 -127 252 -361 437 -636 504 -78 19 -282 27 -364 14z"/>
<path d="M10935 5666 c-106 -26 -209 -103 -257 -193 -14 -27 -58 -138 -96
-248 -39 -110 -132 -375 -207 -590 -76 -214 -162 -460 -192 -545 -107 -305
-132 -377 -183 -520 -28 -80 -70 -200 -93 -267 l-42 -123 -900 0 c-495 -1
-918 -3 -940 -7 -62 -8 -155 -58 -208 -109 -98 -95 -137 -191 -132 -319 2 -44
9 -96 16 -115 52 -144 178 -254 320 -280 37 -7 429 -10 1150 -8 l1094 3 62 27
c67 28 75 34 134 92 51 51 81 102 114 196 14 41 29 82 32 90 3 8 7 20 9 25 2
6 14 42 28 80 65 185 150 426 166 475 23 67 28 80 232 660 22 63 58 165 80
225 22 61 41 115 42 120 2 6 5 17 8 25 3 8 16 44 28 80 12 36 26 74 31 85 5
11 20 54 34 95 13 41 48 140 76 220 131 371 139 414 104 538 -61 211 -290 341
-510 288z"/>
</g>
</svg>
