<?xml version="1.0" encoding="utf-8"?>
<!-- Generator: Adobe Illustrator 20.1.0, SVG Export Plug-In . SVG Version: 6.00 Build 0)  -->
<svg version="1.1" id="Layer_1" xmlns="http://www.w3.org/2000/svg" xmlns:xlink="http://www.w3.org/1999/xlink" x="0px" y="0px"
	 width="185px" height="188px" viewBox="0 0 185 188" enable-background="new 0 0 185 188" xml:space="preserve">
<g>
	<path fill="#E6E6E5" d="M3.549,148.186c0-1.385,0.117-2.584,0.353-3.598c0.235-1.013,0.635-1.861,1.2-2.544
		c0.564-0.682,1.313-1.189,2.245-1.52c0.932-0.331,2.093-0.497,3.486-0.497H21.42c1.261,0,2.301,0.146,3.12,0.436
		c0.819,0.291,1.473,0.683,1.962,1.174c0.489,0.492,0.833,1.069,1.031,1.731c0.197,0.662,0.296,1.355,0.296,2.077v1.867H25.4v-0.994
		c0-0.923-0.127-1.646-0.381-2.168c-0.254-0.522-0.593-0.908-1.017-1.16c-0.423-0.251-0.917-0.406-1.482-0.467
		c-0.564-0.06-1.167-0.09-1.807-0.09h-9.599c-0.659,0-1.28,0.065-1.863,0.196c-0.583,0.131-1.092,0.366-1.524,0.708
		c-0.433,0.342-0.776,0.813-1.03,1.415c-0.254,0.602-0.381,1.375-0.381,2.319v8.189c0,0.944,0.127,1.716,0.381,2.318
		c0.254,0.602,0.597,1.074,1.03,1.415c0.433,0.341,0.941,0.577,1.524,0.708s1.205,0.196,1.863,0.196h9.684
		c0.922,0,1.694-0.06,2.315-0.181c0.621-0.121,1.115-0.326,1.482-0.617c0.367-0.291,0.625-0.677,0.776-1.159
		c0.15-0.482,0.226-1.094,0.226-1.836v-1.355h2.597v1.475c0,0.984-0.089,1.857-0.268,2.619c-0.179,0.763-0.522,1.4-1.03,1.912
		c-0.508,0.512-1.214,0.899-2.118,1.16c-0.903,0.261-2.07,0.391-3.5,0.391H10.833c-1.393,0-2.555-0.165-3.486-0.497
		s-1.68-0.838-2.245-1.521c-0.564-0.682-0.965-1.53-1.2-2.544c-0.236-1.013-0.353-2.213-0.353-3.598V148.186z"/>
	<path fill="#E6E6E5" d="M32.43,146.15h2.258v2.308h0.057c0.226-0.52,0.503-0.946,0.833-1.279c0.329-0.333,0.691-0.593,1.087-0.78
		c0.395-0.187,0.805-0.317,1.228-0.39s0.842-0.109,1.256-0.109h2.287c1.129,0,2.08,0.104,2.852,0.312
		c0.771,0.208,1.393,0.536,1.863,0.982c0.47,0.447,0.809,1.019,1.016,1.715c0.207,0.697,0.311,1.534,0.311,2.511v1.903h-2.258
		v-0.687c0-0.977-0.062-1.767-0.184-2.37c-0.123-0.603-0.363-1.065-0.72-1.388c-0.358-0.322-0.871-0.535-1.539-0.639
		s-1.539-0.156-2.611-0.156h-1.496c-0.64,0-1.2,0.104-1.68,0.312c-0.48,0.208-0.875,0.489-1.186,0.842s-0.546,0.764-0.706,1.232
		c-0.16,0.468-0.24,0.962-0.24,1.481v10.105H32.43V146.15z"/>
	<path fill="#E6E6E5" d="M65.235,160.466h-0.057c-0.169,0.354-0.358,0.65-0.564,0.889c-0.208,0.239-0.494,0.432-0.861,0.577
		c-0.367,0.146-0.847,0.245-1.44,0.296c-0.593,0.052-1.351,0.078-2.272,0.078h-5.816c-0.922,0-1.68-0.109-2.272-0.328
		s-1.063-0.53-1.412-0.936c-0.349-0.405-0.593-0.904-0.734-1.497s-0.212-1.263-0.212-2.012v-1.061c0-0.894,0.141-1.611,0.423-2.152
		c0.283-0.541,0.701-0.952,1.256-1.232c0.555-0.281,1.242-0.463,2.061-0.546s1.755-0.125,2.809-0.125h3.896
		c0.791,0,1.463,0.026,2.019,0.078c0.555,0.052,1.03,0.151,1.426,0.296c0.395,0.146,0.724,0.343,0.988,0.592
		s0.499,0.562,0.706,0.936h0.057v-2.994c0-0.707-0.104-1.279-0.311-1.716c-0.208-0.437-0.532-0.764-0.974-0.982
		c-0.442-0.218-1.002-0.363-1.68-0.437c-0.678-0.073-1.478-0.109-2.4-0.109h-3.557c-0.772,0-1.393,0.047-1.863,0.141
		c-0.471,0.094-0.838,0.234-1.101,0.421c-0.264,0.188-0.442,0.411-0.537,0.671c-0.094,0.26-0.141,0.556-0.141,0.889v0.562h-2.428
		v-0.78c0-0.728,0.108-1.352,0.325-1.872c0.216-0.52,0.564-0.94,1.044-1.263c0.48-0.322,1.101-0.561,1.863-0.717
		c0.762-0.156,1.689-0.234,2.781-0.234h3.84c1.129,0,2.16,0.063,3.091,0.187c0.932,0.125,1.727,0.385,2.385,0.78
		c0.659,0.396,1.172,0.952,1.539,1.669c0.367,0.717,0.551,1.668,0.551,2.854v10.667h-2.428V160.466z M65.235,157.067
		c0-0.541-0.113-0.972-0.339-1.294c-0.226-0.322-0.565-0.572-1.017-0.749c-0.452-0.176-1.021-0.291-1.708-0.343
		c-0.687-0.052-1.492-0.078-2.414-0.078h-3.727c-0.791,0-1.44,0.036-1.948,0.109c-0.508,0.073-0.917,0.203-1.228,0.39
		c-0.311,0.187-0.527,0.442-0.649,0.764s-0.183,0.733-0.183,1.232v0.499c0,0.437,0.046,0.816,0.141,1.138
		c0.094,0.323,0.282,0.588,0.564,0.795c0.282,0.208,0.678,0.359,1.186,0.452c0.508,0.094,1.176,0.141,2.005,0.141h3.218
		c1.091,0,2.028-0.026,2.809-0.078c0.781-0.052,1.412-0.166,1.892-0.343c0.479-0.176,0.833-0.416,1.059-0.717
		c0.226-0.301,0.339-0.702,0.339-1.201V157.067z"/>
	<path fill="#E6E6E5" d="M71.305,152.326c0-1.435,0.212-2.578,0.635-3.431c0.424-0.852,0.974-1.502,1.652-1.949
		c0.677-0.447,1.449-0.733,2.315-0.858c0.865-0.125,1.741-0.187,2.625-0.187h4.065c2.258,0,3.872,0.479,4.842,1.435
		c0.969,0.957,1.454,2.277,1.454,3.961v0.437h-2.258v-0.375c0-0.665-0.094-1.211-0.282-1.637c-0.188-0.426-0.457-0.759-0.805-0.998
		c-0.349-0.239-0.772-0.405-1.271-0.499c-0.499-0.094-1.049-0.141-1.651-0.141h-4.461c-0.564,0-1.115,0.042-1.651,0.125
		c-0.537,0.083-1.012,0.271-1.426,0.562c-0.414,0.292-0.744,0.723-0.988,1.294s-0.367,1.356-0.367,2.354v3.337
		c0,0.894,0.117,1.622,0.353,2.183c0.235,0.562,0.569,1.003,1.002,1.326c0.433,0.323,0.95,0.546,1.553,0.67
		c0.602,0.125,1.271,0.188,2.004,0.188h4.094c0.564,0,1.096-0.052,1.595-0.156c0.498-0.104,0.941-0.286,1.327-0.546
		c0.386-0.26,0.687-0.603,0.903-1.029s0.325-0.962,0.325-1.606v-0.53h2.259v0.468c0,0.998-0.118,1.851-0.353,2.558
		c-0.235,0.707-0.607,1.284-1.115,1.731c-0.508,0.447-1.162,0.775-1.962,0.982c-0.8,0.208-1.765,0.312-2.894,0.312h-5.477
		c-0.546,0-1.167-0.063-1.863-0.187c-0.697-0.125-1.355-0.411-1.977-0.858c-0.621-0.447-1.143-1.096-1.567-1.949
		c-0.423-0.853-0.635-1.996-0.635-3.431V152.326z"/>
	<path fill="#E6E6E5" d="M92.874,139.476h2.428v12.694h1.186l8.385-6.02h3.783l0.057,0.063l-9.938,7.049l11.829,8.733l-0.057,0.063
		h-3.783l-10.418-7.704h-1.044v7.704h-2.428V139.476z"/>
	<g>
		<g>
			<path fill="#E6E6E5" d="M6.96,174.637H4.129v-1.932H6.96v-3.339h2.174v3.339h8.621v1.932H9.134v7.01
				c0,0.662,0.055,1.21,0.164,1.642c0.11,0.432,0.291,0.782,0.544,1.048c0.252,0.267,0.585,0.456,0.999,0.566
				c0.413,0.11,0.914,0.166,1.504,0.166h0.683c0.725,0,1.306-0.05,1.745-0.152c0.438-0.101,0.775-0.285,1.011-0.552
				c0.236-0.267,0.392-0.635,0.467-1.104c0.076-0.469,0.114-1.071,0.114-1.808v-1.048h1.77v1.545c0,0.699-0.038,1.357-0.114,1.973
				c-0.076,0.617-0.278,1.155-0.607,1.615s-0.822,0.819-1.479,1.076S14.358,187,13.179,187h-1.188c-1.011,0-1.845-0.124-2.502-0.373
				c-0.657-0.248-1.172-0.58-1.542-0.993c-0.371-0.414-0.628-0.888-0.771-1.421c-0.143-0.533-0.215-1.085-0.215-1.656V174.637z"/>
			<path fill="#E6E6E5" d="M20.788,166.8h2.174v8.334h0.051c0.202-0.552,0.459-0.998,0.771-1.338c0.312-0.34,0.683-0.607,1.112-0.8
				c0.43-0.193,0.923-0.327,1.479-0.4c0.556-0.073,1.171-0.11,1.845-0.11h3.11c1.011,0,1.862,0.129,2.553,0.386
				c0.691,0.258,1.243,0.607,1.656,1.049c0.413,0.441,0.708,0.952,0.885,1.532c0.177,0.58,0.266,1.182,0.266,1.808v9.521h-2.174
				v-8.941c0-0.515-0.05-0.984-0.151-1.407c-0.102-0.423-0.316-0.782-0.645-1.076c-0.329-0.294-0.805-0.524-1.428-0.69
				s-1.466-0.249-2.528-0.249h-0.556c-1.264,0-2.301,0.074-3.11,0.221c-0.809,0.148-1.445,0.387-1.909,0.718
				s-0.784,0.777-0.96,1.338c-0.177,0.562-0.266,1.256-0.266,2.083v8.003h-2.174V166.8z"/>
			<path fill="#E6E6E5" d="M40.203,178.169c0-1.27,0.185-2.281,0.556-3.036c0.371-0.754,0.855-1.329,1.454-1.725
				c0.598-0.395,1.272-0.648,2.022-0.759c0.75-0.11,1.512-0.166,2.288-0.166h3.489c0.978,0,1.875,0.083,2.692,0.249
				s1.521,0.474,2.111,0.924c0.59,0.451,1.053,1.072,1.391,1.863c0.337,0.791,0.506,1.813,0.506,3.063v1.573H42.377v0.883
				c0,0.81,0.092,1.472,0.278,1.987c0.185,0.515,0.484,0.924,0.897,1.228c0.413,0.303,0.952,0.515,1.618,0.635
				c0.666,0.12,1.47,0.179,2.414,0.179h2.983c0.674,0,1.255-0.032,1.745-0.097c0.489-0.064,0.893-0.188,1.213-0.373
				c0.32-0.184,0.56-0.441,0.721-0.772c0.16-0.332,0.256-0.763,0.291-1.297h2.174v0.276c0,0.81-0.148,1.481-0.443,2.014
				c-0.295,0.534-0.725,0.962-1.289,1.283c-0.565,0.322-1.248,0.552-2.048,0.69c-0.801,0.138-1.706,0.207-2.717,0.207h-3.944
				c-0.708,0-1.424-0.055-2.149-0.166c-0.725-0.11-1.378-0.368-1.959-0.772c-0.581-0.405-1.053-0.984-1.416-1.739
				c-0.363-0.754-0.543-1.784-0.543-3.091V178.169z M54.537,177.286c0-0.349-0.072-0.699-0.215-1.049
				c-0.144-0.349-0.384-0.657-0.721-0.924c-0.337-0.267-0.8-0.483-1.39-0.648c-0.59-0.166-1.323-0.249-2.2-0.249h-3.185
				c-0.86,0-1.567,0.051-2.124,0.152c-0.556,0.102-0.999,0.29-1.327,0.566s-0.565,0.662-0.708,1.159
				c-0.144,0.497-0.24,1.141-0.291,1.932h12.16V177.286z"/>
		</g>
	</g>
	<path fill="#E6E6E5" d="M65.535,174.467c0-1.166,0.102-2.176,0.306-3.03c0.204-0.854,0.551-1.568,1.04-2.143
		c0.49-0.575,1.138-1.002,1.946-1.281c0.808-0.279,1.815-0.418,3.023-0.418h9.179c1.093,0,1.995,0.123,2.705,0.368
		c0.709,0.245,1.276,0.575,1.701,0.989c0.424,0.414,0.722,0.9,0.893,1.458c0.171,0.558,0.257,1.141,0.257,1.75v1.572h-2.105v-0.837
		c0-0.777-0.11-1.386-0.331-1.826s-0.514-0.765-0.881-0.977c-0.367-0.211-0.795-0.342-1.285-0.393
		c-0.489-0.051-1.012-0.076-1.566-0.076h-8.323c-0.571,0-1.11,0.055-1.615,0.165c-0.506,0.11-0.947,0.308-1.322,0.596
		s-0.673,0.685-0.893,1.192s-0.331,1.158-0.331,1.953v6.898c0,0.795,0.11,1.446,0.331,1.953s0.518,0.905,0.893,1.192
		c0.375,0.288,0.816,0.486,1.322,0.596c0.505,0.11,1.044,0.165,1.615,0.165h8.396c0.799,0,1.469-0.051,2.007-0.152
		c0.539-0.101,0.967-0.274,1.285-0.52c0.318-0.245,0.542-0.571,0.673-0.976c0.131-0.406,0.196-0.921,0.196-1.547v-1.141h2.252v1.243
		c0,0.828-0.078,1.564-0.233,2.206s-0.453,1.179-0.894,1.61c-0.44,0.431-1.052,0.757-1.835,0.977c-0.784,0.22-1.795,0.33-3.036,0.33
		h-9.057c-1.208,0-2.215-0.14-3.023-0.419c-0.808-0.279-1.457-0.705-1.946-1.28c-0.489-0.575-0.836-1.289-1.04-2.143
		c-0.205-0.854-0.306-1.864-0.306-3.03V174.467z"/>
	<path fill="#E6E6E5" d="M89.988,178.011c0-1.099,0.171-1.998,0.514-2.696c0.343-0.697,0.82-1.251,1.432-1.662
		c0.612-0.41,1.342-0.689,2.191-0.837c0.848-0.148,1.77-0.223,2.766-0.223h3.011c0.995,0,1.917,0.074,2.766,0.223
		s1.579,0.428,2.191,0.837c0.611,0.41,1.089,0.964,1.432,1.662c0.343,0.698,0.514,1.597,0.514,2.696v2.932
		c0,1.099-0.171,1.998-0.514,2.695c-0.343,0.698-0.82,1.252-1.432,1.662c-0.612,0.41-1.343,0.689-2.191,0.837
		s-1.771,0.223-2.766,0.223h-3.011c-0.996,0-1.918-0.075-2.766-0.223c-0.85-0.148-1.58-0.427-2.191-0.837
		c-0.612-0.41-1.089-0.964-1.432-1.662c-0.343-0.697-0.514-1.596-0.514-2.695V178.011z M104.7,178.142
		c0-0.785-0.103-1.417-0.307-1.897c-0.204-0.479-0.489-0.854-0.856-1.125c-0.367-0.27-0.808-0.453-1.322-0.549
		c-0.514-0.096-1.073-0.144-1.677-0.144h-4.283c-0.62,0-1.184,0.048-1.689,0.144c-0.506,0.096-0.941,0.279-1.31,0.549
		c-0.367,0.271-0.652,0.646-0.856,1.125c-0.204,0.48-0.306,1.112-0.306,1.897v2.67c0,0.785,0.102,1.417,0.306,1.897
		s0.49,0.855,0.856,1.125c0.368,0.271,0.804,0.454,1.31,0.55c0.506,0.096,1.069,0.144,1.689,0.144h4.283
		c0.604,0,1.163-0.048,1.677-0.144c0.515-0.096,0.955-0.279,1.322-0.55c0.367-0.27,0.652-0.645,0.856-1.125s0.307-1.112,0.307-1.897
		V178.142z"/>
	<path fill="#E6E6E5" d="M125.751,186.151h-1.959v-2.12h-0.049c-0.31,0.82-0.865,1.414-1.664,1.78c-0.8,0.367-1.755,0.55-2.864,0.55
		h-2.938c-0.963,0-1.84-0.079-2.631-0.236c-0.792-0.157-1.474-0.44-2.044-0.851c-0.571-0.41-1.017-0.981-1.334-1.714
		c-0.318-0.733-0.478-1.675-0.478-2.827v-2.355c0-1.064,0.105-1.963,0.318-2.696c0.212-0.733,0.575-1.331,1.089-1.793
		c0.514-0.462,1.191-0.793,2.032-0.995c0.84-0.2,1.896-0.301,3.169-0.301h3.207c1.208,0,2.117,0.157,2.729,0.471
		s1.032,0.82,1.261,1.518h0.049v-7.381h2.105V186.151z M111.896,180.707c0,0.646,0.058,1.208,0.172,1.688
		c0.114,0.48,0.326,0.877,0.637,1.191c0.31,0.314,0.734,0.55,1.272,0.707c0.538,0.157,1.24,0.236,2.105,0.236h3.427
		c0.783,0,1.439-0.087,1.971-0.262c0.529-0.174,0.954-0.423,1.272-0.746c0.318-0.323,0.547-0.724,0.686-1.204
		s0.208-1.025,0.208-1.636v-2.539c0-0.802-0.106-1.448-0.318-1.937c-0.212-0.488-0.514-0.864-0.905-1.125s-0.874-0.436-1.444-0.523
		c-0.571-0.087-1.208-0.131-1.909-0.131h-2.84c-0.718,0-1.351,0.048-1.897,0.144c-0.547,0.096-0.999,0.275-1.358,0.537
		c-0.358,0.262-0.628,0.632-0.808,1.112s-0.27,1.104-0.27,1.871V180.707z"/>
	<path fill="#E6E6E5" d="M129.153,177.985c0-1.204,0.179-2.164,0.538-2.879s0.828-1.261,1.408-1.636
		c0.578-0.375,1.231-0.615,1.958-0.72c0.726-0.105,1.464-0.157,2.215-0.157h3.378c0.946,0,1.815,0.079,2.607,0.235
		c0.791,0.157,1.473,0.45,2.044,0.877c0.57,0.428,1.02,1.017,1.346,1.767c0.326,0.75,0.49,1.719,0.49,2.905v1.492h-13.88v0.837
		c0,0.768,0.09,1.396,0.27,1.884c0.18,0.489,0.469,0.877,0.869,1.165c0.399,0.288,0.922,0.488,1.566,0.602
		c0.645,0.114,1.424,0.17,2.338,0.17h2.889c0.652,0,1.215-0.03,1.688-0.092c0.474-0.061,0.865-0.179,1.175-0.353
		c0.311-0.174,0.543-0.419,0.698-0.733c0.154-0.314,0.248-0.724,0.281-1.23h2.105v0.262c0,0.768-0.144,1.404-0.429,1.91
		c-0.286,0.506-0.702,0.912-1.248,1.217c-0.547,0.305-1.208,0.523-1.983,0.654s-1.652,0.196-2.631,0.196h-3.818
		c-0.686,0-1.38-0.052-2.081-0.157c-0.702-0.104-1.334-0.349-1.897-0.733c-0.563-0.383-1.02-0.933-1.37-1.648
		c-0.352-0.715-0.526-1.692-0.526-2.932V177.985z M143.032,177.147c0-0.331-0.069-0.663-0.208-0.994s-0.371-0.624-0.697-0.877
		c-0.327-0.253-0.775-0.458-1.347-0.615c-0.571-0.157-1.281-0.235-2.13-0.235h-3.084c-0.832,0-1.518,0.048-2.057,0.144
		c-0.538,0.096-0.967,0.275-1.284,0.537c-0.318,0.262-0.548,0.628-0.686,1.099c-0.139,0.471-0.232,1.082-0.282,1.832h11.774V177.147
		z"/>
</g>
<path fill="#1761A0" d="M152.3,131.1v3.3l5.6,3.1l-5.6,3.1v3.3l9.6-5.3v-2.2L152.3,131.1z M135.9,141.5c-0.9-0.8-2.1-1.4-3.3-1.7
	l-6.7,3.7v2.3l10.3,5.7V148l-6-3.3L135.9,141.5z M130.7,157.9c-5.8,0-10.5-4.7-10.5-10.4c0-5.8,4.7-10.4,10.5-10.4
	s10.5,4.7,10.5,10.4C141.2,153.3,136.5,157.9,130.7,157.9z M147.5,147.5c0-2.7-0.7-5.2-1.8-7.5l4.7-12.3h-3.3l-3.5,9.2
	c-3.1-3.7-7.7-6-12.9-6c-9.2,0-16.7,7.5-16.7,16.6c0,9.2,7.5,16.6,16.7,16.6c3.1,0,6.1-0.9,8.6-2.3l11.3,11.2l5.5-5.5l-11.2-11.2
	C146.5,153.8,147.5,150.8,147.5,147.5z"/>
<g>
	<path fill="#4E4E4E" d="M3.549,22.285c0-1.385,0.117-2.584,0.353-3.598c0.235-1.013,0.635-1.861,1.2-2.544
		c0.564-0.682,1.313-1.189,2.245-1.52c0.932-0.331,2.093-0.497,3.486-0.497H21.42c1.261,0,2.301,0.146,3.12,0.436
		c0.819,0.291,1.473,0.683,1.962,1.174c0.489,0.492,0.833,1.069,1.031,1.731c0.197,0.662,0.296,1.355,0.296,2.077v1.867H25.4v-0.994
		c0-0.923-0.127-1.646-0.381-2.168c-0.254-0.522-0.593-0.908-1.017-1.16c-0.423-0.251-0.917-0.406-1.482-0.467
		c-0.564-0.06-1.167-0.09-1.807-0.09h-9.599c-0.659,0-1.28,0.065-1.863,0.196s-1.092,0.366-1.524,0.708
		c-0.433,0.342-0.776,0.813-1.03,1.415c-0.254,0.602-0.381,1.375-0.381,2.319v8.189c0,0.944,0.127,1.716,0.381,2.318
		c0.254,0.602,0.597,1.074,1.03,1.415c0.433,0.341,0.941,0.577,1.524,0.708s1.205,0.196,1.863,0.196h9.684
		c0.922,0,1.694-0.06,2.315-0.181c0.621-0.121,1.115-0.326,1.482-0.617c0.367-0.291,0.625-0.677,0.776-1.159
		c0.15-0.482,0.226-1.094,0.226-1.836v-1.355h2.597v1.475c0,0.984-0.089,1.857-0.268,2.619c-0.179,0.763-0.522,1.4-1.03,1.912
		s-1.214,0.899-2.118,1.16c-0.903,0.261-2.07,0.391-3.5,0.391H10.833c-1.393,0-2.555-0.165-3.486-0.497s-1.68-0.838-2.245-1.521
		c-0.564-0.682-0.965-1.53-1.2-2.544c-0.236-1.013-0.353-2.213-0.353-3.598V22.285z"/>
	<path fill="#4E4E4E" d="M32.43,20.25h2.258v2.308h0.057c0.226-0.52,0.503-0.946,0.833-1.279c0.329-0.333,0.691-0.593,1.087-0.78
		c0.395-0.187,0.805-0.317,1.228-0.39S38.735,20,39.149,20h2.287c1.129,0,2.08,0.104,2.852,0.312
		c0.771,0.208,1.393,0.536,1.863,0.982c0.47,0.447,0.809,1.019,1.016,1.715c0.207,0.697,0.311,1.534,0.311,2.511v1.903h-2.258
		v-0.687c0-0.977-0.062-1.767-0.184-2.37c-0.123-0.603-0.363-1.065-0.72-1.388c-0.358-0.322-0.871-0.535-1.539-0.639
		s-1.539-0.156-2.611-0.156h-1.496c-0.64,0-1.2,0.104-1.68,0.312c-0.48,0.208-0.875,0.489-1.186,0.842s-0.546,0.764-0.706,1.232
		c-0.16,0.468-0.24,0.962-0.24,1.481v10.105H32.43V20.25z"/>
	<path fill="#4E4E4E" d="M65.235,34.565h-0.057c-0.169,0.354-0.358,0.65-0.564,0.889c-0.208,0.239-0.494,0.432-0.861,0.577
		c-0.367,0.146-0.847,0.245-1.44,0.296c-0.593,0.052-1.351,0.078-2.272,0.078h-5.816c-0.922,0-1.68-0.109-2.272-0.328
		s-1.063-0.53-1.412-0.936c-0.349-0.405-0.593-0.904-0.734-1.497s-0.212-1.263-0.212-2.012v-1.061c0-0.894,0.141-1.611,0.423-2.152
		c0.283-0.541,0.701-0.952,1.256-1.232c0.555-0.281,1.242-0.463,2.061-0.546s1.755-0.125,2.809-0.125h3.896
		c0.791,0,1.463,0.026,2.019,0.078c0.555,0.052,1.03,0.151,1.426,0.296c0.395,0.146,0.724,0.343,0.988,0.592
		s0.499,0.562,0.706,0.936h0.057v-2.994c0-0.707-0.104-1.279-0.311-1.716c-0.208-0.437-0.532-0.764-0.974-0.982
		c-0.442-0.218-1.002-0.363-1.68-0.437c-0.678-0.073-1.478-0.109-2.4-0.109h-3.557c-0.772,0-1.393,0.047-1.863,0.141
		c-0.471,0.094-0.838,0.234-1.101,0.421c-0.264,0.188-0.442,0.411-0.537,0.671c-0.094,0.26-0.141,0.556-0.141,0.889v0.562h-2.428
		v-0.78c0-0.728,0.108-1.352,0.325-1.872c0.216-0.52,0.564-0.94,1.044-1.263c0.48-0.322,1.101-0.561,1.863-0.717
		C54.239,20.078,55.166,20,56.257,20h3.84c1.129,0,2.16,0.063,3.091,0.187c0.932,0.125,1.727,0.385,2.385,0.78
		c0.659,0.396,1.172,0.952,1.539,1.669c0.367,0.717,0.551,1.668,0.551,2.854v10.667h-2.428V34.565z M65.235,31.166
		c0-0.541-0.113-0.972-0.339-1.294c-0.226-0.322-0.565-0.572-1.017-0.749c-0.452-0.176-1.021-0.291-1.708-0.343
		c-0.687-0.052-1.492-0.078-2.414-0.078h-3.727c-0.791,0-1.44,0.036-1.948,0.109c-0.508,0.073-0.917,0.203-1.228,0.39
		c-0.311,0.187-0.527,0.442-0.649,0.764s-0.183,0.733-0.183,1.232v0.499c0,0.437,0.046,0.816,0.141,1.138
		c0.094,0.323,0.282,0.588,0.564,0.795c0.282,0.208,0.678,0.359,1.186,0.452c0.508,0.094,1.176,0.141,2.005,0.141h3.218
		c1.091,0,2.028-0.026,2.809-0.078c0.781-0.052,1.412-0.166,1.892-0.343c0.479-0.176,0.833-0.416,1.059-0.717
		c0.226-0.301,0.339-0.702,0.339-1.201V31.166z"/>
	<path fill="#4E4E4E" d="M71.305,26.425c0-1.435,0.212-2.578,0.635-3.431c0.424-0.852,0.974-1.502,1.652-1.949
		c0.677-0.447,1.449-0.733,2.315-0.858C76.772,20.063,77.647,20,78.532,20h4.065c2.258,0,3.872,0.479,4.842,1.435
		c0.969,0.957,1.454,2.277,1.454,3.961v0.437h-2.258v-0.375c0-0.665-0.094-1.211-0.282-1.637c-0.188-0.426-0.457-0.759-0.805-0.998
		c-0.349-0.239-0.772-0.405-1.271-0.499c-0.499-0.094-1.049-0.141-1.651-0.141h-4.461c-0.564,0-1.115,0.042-1.651,0.125
		c-0.537,0.083-1.012,0.271-1.426,0.562c-0.414,0.292-0.744,0.723-0.988,1.294s-0.367,1.356-0.367,2.354v3.337
		c0,0.894,0.117,1.622,0.353,2.183c0.235,0.562,0.569,1.003,1.002,1.326c0.433,0.323,0.95,0.546,1.553,0.67
		c0.602,0.125,1.271,0.188,2.004,0.188h4.094c0.564,0,1.096-0.052,1.595-0.156c0.498-0.104,0.941-0.286,1.327-0.546
		c0.386-0.26,0.687-0.603,0.903-1.029s0.325-0.962,0.325-1.606v-0.53h2.259v0.468c0,0.998-0.118,1.851-0.353,2.558
		c-0.235,0.707-0.607,1.284-1.115,1.731c-0.508,0.447-1.162,0.775-1.962,0.982c-0.8,0.208-1.765,0.312-2.894,0.312h-5.477
		c-0.546,0-1.167-0.063-1.863-0.187c-0.697-0.125-1.355-0.411-1.977-0.858c-0.621-0.447-1.143-1.096-1.567-1.949
		c-0.423-0.853-0.635-1.996-0.635-3.431V26.425z"/>
	<path fill="#4E4E4E" d="M92.874,13.575h2.428v12.694h1.186l8.385-6.02h3.783l0.057,0.063l-9.938,7.049l11.829,8.733l-0.057,0.063
		h-3.783l-10.418-7.704h-1.044v7.704h-2.428V13.575z"/>
	<g>
		<g>
			<path fill="#4E4E4E" d="M6.96,48.736H4.129v-1.932H6.96v-3.339h2.174v3.339h8.621v1.932H9.134v7.01
				c0,0.662,0.055,1.21,0.164,1.642c0.11,0.432,0.291,0.782,0.544,1.048c0.252,0.267,0.585,0.456,0.999,0.566
				c0.413,0.11,0.914,0.166,1.504,0.166h0.683c0.725,0,1.306-0.05,1.745-0.152c0.438-0.101,0.775-0.285,1.011-0.552
				c0.236-0.267,0.392-0.635,0.467-1.104c0.076-0.469,0.114-1.071,0.114-1.808v-1.048h1.77v1.545c0,0.699-0.038,1.357-0.114,1.973
				c-0.076,0.617-0.278,1.155-0.607,1.615s-0.822,0.819-1.479,1.076s-1.576,0.386-2.755,0.386h-1.188
				c-1.011,0-1.845-0.124-2.502-0.373c-0.657-0.248-1.172-0.58-1.542-0.993c-0.371-0.414-0.628-0.888-0.771-1.421
				c-0.143-0.533-0.215-1.085-0.215-1.656V48.736z"/>
			<path fill="#4E4E4E" d="M20.788,40.899h2.174v8.334h0.051c0.202-0.552,0.459-0.998,0.771-1.338c0.312-0.34,0.683-0.607,1.112-0.8
				c0.43-0.193,0.923-0.327,1.479-0.4c0.556-0.073,1.171-0.11,1.845-0.11h3.11c1.011,0,1.862,0.129,2.553,0.386
				c0.691,0.258,1.243,0.607,1.656,1.049c0.413,0.441,0.708,0.952,0.885,1.532c0.177,0.58,0.266,1.182,0.266,1.808v9.521h-2.174
				v-8.941c0-0.515-0.05-0.984-0.151-1.407c-0.102-0.423-0.316-0.782-0.645-1.076c-0.329-0.294-0.805-0.524-1.428-0.69
				s-1.466-0.249-2.528-0.249h-0.556c-1.264,0-2.301,0.074-3.11,0.221c-0.809,0.148-1.445,0.387-1.909,0.718
				s-0.784,0.777-0.96,1.338c-0.177,0.562-0.266,1.256-0.266,2.083v8.003h-2.174V40.899z"/>
			<path fill="#4E4E4E" d="M40.203,52.269c0-1.27,0.185-2.281,0.556-3.036c0.371-0.754,0.855-1.329,1.454-1.725
				c0.598-0.395,1.272-0.648,2.022-0.759c0.75-0.11,1.512-0.166,2.288-0.166h3.489c0.978,0,1.875,0.083,2.692,0.249
				s1.521,0.474,2.111,0.924c0.59,0.451,1.053,1.072,1.391,1.863c0.337,0.791,0.506,1.813,0.506,3.063v1.573H42.377v0.883
				c0,0.81,0.092,1.472,0.278,1.987c0.185,0.515,0.484,0.924,0.897,1.228c0.413,0.303,0.952,0.515,1.618,0.635
				c0.666,0.12,1.47,0.179,2.414,0.179h2.983c0.674,0,1.255-0.032,1.745-0.097c0.489-0.064,0.893-0.188,1.213-0.373
				c0.32-0.184,0.56-0.441,0.721-0.772c0.16-0.332,0.256-0.763,0.291-1.297h2.174v0.276c0,0.81-0.148,1.481-0.443,2.014
				c-0.295,0.534-0.725,0.962-1.289,1.283c-0.565,0.322-1.248,0.552-2.048,0.69c-0.801,0.138-1.706,0.207-2.717,0.207h-3.944
				c-0.708,0-1.424-0.055-2.149-0.166c-0.725-0.11-1.378-0.368-1.959-0.772c-0.581-0.405-1.053-0.984-1.416-1.739
				c-0.363-0.754-0.543-1.784-0.543-3.091V52.269z M54.537,51.385c0-0.349-0.072-0.699-0.215-1.049
				c-0.144-0.349-0.384-0.657-0.721-0.924c-0.337-0.267-0.8-0.483-1.39-0.648c-0.59-0.166-1.323-0.249-2.2-0.249h-3.185
				c-0.86,0-1.567,0.051-2.124,0.152c-0.556,0.102-0.999,0.29-1.327,0.566s-0.565,0.662-0.708,1.159
				c-0.144,0.497-0.24,1.141-0.291,1.932h12.16V51.385z"/>
		</g>
	</g>
	<path fill="#4E4E4E" d="M65.535,48.566c0-1.166,0.102-2.176,0.306-3.03c0.204-0.854,0.551-1.568,1.04-2.143
		c0.49-0.575,1.138-1.002,1.946-1.281c0.808-0.279,1.815-0.418,3.023-0.418h9.179c1.093,0,1.995,0.123,2.705,0.368
		c0.709,0.245,1.276,0.575,1.701,0.989c0.424,0.414,0.722,0.9,0.893,1.458c0.171,0.558,0.257,1.141,0.257,1.75v1.572h-2.105v-0.837
		c0-0.777-0.11-1.386-0.331-1.826s-0.514-0.765-0.881-0.977c-0.367-0.211-0.795-0.342-1.285-0.393
		c-0.489-0.051-1.012-0.076-1.566-0.076h-8.323c-0.571,0-1.11,0.055-1.615,0.165c-0.506,0.11-0.947,0.308-1.322,0.596
		s-0.673,0.685-0.893,1.192s-0.331,1.158-0.331,1.953v6.898c0,0.795,0.11,1.446,0.331,1.953s0.518,0.905,0.893,1.192
		c0.375,0.288,0.816,0.486,1.322,0.596c0.505,0.11,1.044,0.165,1.615,0.165h8.396c0.799,0,1.469-0.051,2.007-0.152
		c0.539-0.101,0.967-0.274,1.285-0.52c0.318-0.245,0.542-0.571,0.673-0.976c0.131-0.406,0.196-0.921,0.196-1.547v-1.141h2.252v1.243
		c0,0.828-0.078,1.564-0.233,2.206c-0.155,0.642-0.453,1.179-0.894,1.61c-0.44,0.431-1.052,0.757-1.835,0.977
		c-0.784,0.22-1.795,0.33-3.036,0.33h-9.057c-1.208,0-2.215-0.14-3.023-0.419c-0.808-0.279-1.457-0.705-1.946-1.28
		c-0.489-0.575-0.836-1.289-1.04-2.143c-0.205-0.854-0.306-1.864-0.306-3.03V48.566z"/>
	<path fill="#4E4E4E" d="M89.988,52.11c0-1.099,0.171-1.998,0.514-2.696c0.343-0.697,0.82-1.251,1.432-1.662
		c0.612-0.41,1.342-0.689,2.191-0.837c0.848-0.148,1.77-0.223,2.766-0.223h3.011c0.995,0,1.917,0.074,2.766,0.223
		s1.579,0.428,2.191,0.837c0.611,0.41,1.089,0.964,1.432,1.662c0.343,0.698,0.514,1.597,0.514,2.696v2.932
		c0,1.099-0.171,1.998-0.514,2.695c-0.343,0.698-0.82,1.252-1.432,1.662c-0.612,0.41-1.343,0.689-2.191,0.837
		s-1.771,0.223-2.766,0.223h-3.011c-0.996,0-1.918-0.075-2.766-0.223c-0.85-0.148-1.58-0.427-2.191-0.837
		c-0.612-0.41-1.089-0.964-1.432-1.662c-0.343-0.697-0.514-1.596-0.514-2.695V52.11z M104.7,52.241c0-0.785-0.103-1.417-0.307-1.897
		c-0.204-0.479-0.489-0.854-0.856-1.125c-0.367-0.27-0.808-0.453-1.322-0.549c-0.514-0.096-1.073-0.144-1.677-0.144h-4.283
		c-0.62,0-1.184,0.048-1.689,0.144c-0.506,0.096-0.941,0.279-1.31,0.549c-0.367,0.271-0.652,0.646-0.856,1.125
		c-0.204,0.48-0.306,1.112-0.306,1.897v2.67c0,0.785,0.102,1.417,0.306,1.897s0.49,0.855,0.856,1.125
		c0.368,0.271,0.804,0.454,1.31,0.55c0.506,0.096,1.069,0.144,1.689,0.144h4.283c0.604,0,1.163-0.048,1.677-0.144
		c0.515-0.096,0.955-0.279,1.322-0.55c0.367-0.27,0.652-0.645,0.856-1.125s0.307-1.112,0.307-1.897V52.241z"/>
	<path fill="#4E4E4E" d="M125.751,60.25h-1.959v-2.12h-0.049c-0.31,0.82-0.865,1.414-1.664,1.78c-0.8,0.367-1.755,0.55-2.864,0.55
		h-2.938c-0.963,0-1.84-0.079-2.631-0.236c-0.792-0.157-1.474-0.44-2.044-0.851c-0.571-0.41-1.017-0.981-1.334-1.714
		c-0.318-0.733-0.478-1.675-0.478-2.827v-2.355c0-1.064,0.105-1.963,0.318-2.696c0.212-0.733,0.575-1.331,1.089-1.793
		c0.514-0.462,1.191-0.793,2.032-0.995c0.84-0.2,1.896-0.301,3.169-0.301h3.207c1.208,0,2.117,0.157,2.729,0.471
		s1.032,0.82,1.261,1.518h0.049v-7.381h2.105V60.25z M111.896,54.806c0,0.646,0.058,1.208,0.172,1.688
		c0.114,0.48,0.326,0.877,0.637,1.191c0.31,0.314,0.734,0.55,1.272,0.707c0.538,0.157,1.24,0.236,2.105,0.236h3.427
		c0.783,0,1.439-0.087,1.971-0.262c0.529-0.174,0.954-0.423,1.272-0.746c0.318-0.323,0.547-0.724,0.686-1.204
		s0.208-1.025,0.208-1.636v-2.539c0-0.802-0.106-1.448-0.318-1.937c-0.212-0.488-0.514-0.864-0.905-1.125s-0.874-0.436-1.444-0.523
		c-0.571-0.087-1.208-0.131-1.909-0.131h-2.84c-0.718,0-1.351,0.048-1.897,0.144c-0.547,0.096-0.999,0.275-1.358,0.537
		c-0.358,0.262-0.628,0.632-0.808,1.112s-0.27,1.104-0.27,1.871V54.806z"/>
	<path fill="#4E4E4E" d="M129.153,52.084c0-1.204,0.179-2.164,0.538-2.879s0.828-1.261,1.408-1.636
		c0.578-0.375,1.231-0.615,1.958-0.72c0.726-0.105,1.464-0.157,2.215-0.157h3.378c0.946,0,1.815,0.079,2.607,0.235
		c0.791,0.157,1.473,0.45,2.044,0.877c0.57,0.428,1.02,1.017,1.346,1.767c0.326,0.75,0.49,1.719,0.49,2.905v1.492h-13.88v0.837
		c0,0.768,0.09,1.396,0.27,1.884c0.18,0.489,0.469,0.877,0.869,1.165c0.399,0.288,0.922,0.488,1.566,0.602
		c0.645,0.114,1.424,0.17,2.338,0.17h2.889c0.652,0,1.215-0.03,1.688-0.092c0.474-0.061,0.865-0.179,1.175-0.353
		c0.311-0.174,0.543-0.419,0.698-0.733c0.154-0.314,0.248-0.724,0.281-1.23h2.105v0.262c0,0.768-0.144,1.404-0.429,1.91
		c-0.286,0.506-0.702,0.912-1.248,1.217c-0.547,0.305-1.208,0.523-1.983,0.654s-1.652,0.196-2.631,0.196h-3.818
		c-0.686,0-1.38-0.052-2.081-0.157c-0.702-0.104-1.334-0.349-1.897-0.733c-0.563-0.383-1.02-0.933-1.37-1.648
		c-0.352-0.715-0.526-1.692-0.526-2.932V52.084z M143.032,51.247c0-0.331-0.069-0.663-0.208-0.994s-0.371-0.624-0.697-0.877
		c-0.327-0.253-0.775-0.458-1.347-0.615c-0.571-0.157-1.281-0.235-2.13-0.235h-3.084c-0.832,0-1.518,0.048-2.057,0.144
		c-0.538,0.096-0.967,0.275-1.284,0.537c-0.318,0.262-0.548,0.628-0.686,1.099c-0.139,0.471-0.232,1.082-0.282,1.832h11.774V51.247z
		"/>
</g>
<g>
	<path fill="#E6E6E5" d="M3.549,85.31c0-1.385,0.117-2.584,0.353-3.598c0.235-1.013,0.635-1.861,1.2-2.544
		c0.564-0.682,1.313-1.189,2.245-1.52c0.932-0.331,2.093-0.497,3.486-0.497H21.42c1.261,0,2.301,0.146,3.12,0.436
		c0.819,0.291,1.473,0.683,1.962,1.174c0.489,0.492,0.833,1.069,1.031,1.731c0.197,0.662,0.296,1.355,0.296,2.077v1.867H25.4v-0.994
		c0-0.923-0.127-1.646-0.381-2.168c-0.254-0.522-0.593-0.908-1.017-1.16c-0.423-0.251-0.917-0.406-1.482-0.467
		c-0.564-0.06-1.167-0.09-1.807-0.09h-9.599c-0.659,0-1.28,0.065-1.863,0.196c-0.583,0.131-1.092,0.366-1.524,0.708
		c-0.433,0.342-0.776,0.813-1.03,1.415c-0.254,0.602-0.381,1.375-0.381,2.319v8.189c0,0.944,0.127,1.716,0.381,2.318
		c0.254,0.602,0.597,1.074,1.03,1.415c0.433,0.341,0.941,0.577,1.524,0.708c0.583,0.131,1.205,0.196,1.863,0.196h9.684
		c0.922,0,1.694-0.06,2.315-0.181c0.621-0.121,1.115-0.326,1.482-0.617c0.367-0.291,0.625-0.677,0.776-1.159
		c0.15-0.482,0.226-1.094,0.226-1.836v-1.355h2.597v1.475c0,0.984-0.089,1.857-0.268,2.619c-0.179,0.763-0.522,1.4-1.03,1.912
		c-0.508,0.512-1.214,0.899-2.118,1.16c-0.903,0.261-2.07,0.391-3.5,0.391H10.833c-1.393,0-2.555-0.165-3.486-0.497
		c-0.932-0.331-1.68-0.838-2.245-1.521c-0.564-0.682-0.965-1.53-1.2-2.544c-0.236-1.013-0.353-2.213-0.353-3.598V85.31z"/>
	<path fill="#E6E6E5" d="M32.43,83.274h2.258v2.308h0.057c0.226-0.52,0.503-0.946,0.833-1.279c0.329-0.333,0.691-0.593,1.087-0.78
		c0.395-0.187,0.805-0.317,1.228-0.39s0.842-0.109,1.256-0.109h2.287c1.129,0,2.08,0.104,2.852,0.312
		c0.771,0.208,1.393,0.536,1.863,0.982c0.47,0.447,0.809,1.019,1.016,1.715c0.207,0.697,0.311,1.534,0.311,2.511v1.903h-2.258
		v-0.687c0-0.977-0.062-1.767-0.184-2.37c-0.123-0.603-0.363-1.065-0.72-1.388c-0.358-0.322-0.871-0.535-1.539-0.639
		s-1.539-0.156-2.611-0.156h-1.496c-0.64,0-1.2,0.104-1.68,0.312c-0.48,0.208-0.875,0.489-1.186,0.842s-0.546,0.764-0.706,1.232
		c-0.16,0.468-0.24,0.962-0.24,1.481v10.105H32.43V83.274z"/>
	<path fill="#E6E6E5" d="M65.235,97.59h-0.057c-0.169,0.354-0.358,0.65-0.564,0.889c-0.208,0.239-0.494,0.432-0.861,0.577
		c-0.367,0.146-0.847,0.245-1.44,0.296c-0.593,0.052-1.351,0.078-2.272,0.078h-5.816c-0.922,0-1.68-0.109-2.272-0.328
		s-1.063-0.53-1.412-0.936c-0.349-0.405-0.593-0.904-0.734-1.497s-0.212-1.263-0.212-2.012v-1.061c0-0.894,0.141-1.611,0.423-2.152
		c0.283-0.541,0.701-0.952,1.256-1.232c0.555-0.281,1.242-0.463,2.061-0.546s1.755-0.125,2.809-0.125h3.896
		c0.791,0,1.463,0.026,2.019,0.078c0.555,0.052,1.03,0.151,1.426,0.296c0.395,0.146,0.724,0.343,0.988,0.592
		s0.499,0.562,0.706,0.936h0.057v-2.994c0-0.707-0.104-1.279-0.311-1.716c-0.208-0.437-0.532-0.764-0.974-0.982
		c-0.442-0.218-1.002-0.363-1.68-0.437c-0.678-0.073-1.478-0.109-2.4-0.109h-3.557c-0.772,0-1.393,0.047-1.863,0.141
		c-0.471,0.094-0.838,0.234-1.101,0.421c-0.264,0.188-0.442,0.411-0.537,0.671c-0.094,0.26-0.141,0.556-0.141,0.889v0.562h-2.428
		v-0.78c0-0.728,0.108-1.352,0.325-1.872c0.216-0.52,0.564-0.94,1.044-1.263c0.48-0.322,1.101-0.561,1.863-0.717
		c0.762-0.156,1.689-0.234,2.781-0.234h3.84c1.129,0,2.16,0.063,3.091,0.187c0.932,0.125,1.727,0.385,2.385,0.78
		c0.659,0.396,1.172,0.952,1.539,1.669c0.367,0.717,0.551,1.668,0.551,2.854v10.667h-2.428V97.59z M65.235,94.191
		c0-0.541-0.113-0.972-0.339-1.294c-0.226-0.322-0.565-0.572-1.017-0.749c-0.452-0.176-1.021-0.291-1.708-0.343
		c-0.687-0.052-1.492-0.078-2.414-0.078h-3.727c-0.791,0-1.44,0.036-1.948,0.109c-0.508,0.073-0.917,0.203-1.228,0.39
		c-0.311,0.187-0.527,0.442-0.649,0.764s-0.183,0.733-0.183,1.232v0.499c0,0.437,0.046,0.816,0.141,1.138
		c0.094,0.323,0.282,0.588,0.564,0.795c0.282,0.208,0.678,0.359,1.186,0.452c0.508,0.094,1.176,0.141,2.005,0.141h3.218
		c1.091,0,2.028-0.026,2.809-0.078c0.781-0.052,1.412-0.166,1.892-0.343c0.479-0.176,0.833-0.416,1.059-0.717
		c0.226-0.301,0.339-0.702,0.339-1.201V94.191z"/>
	<path fill="#E6E6E5" d="M71.305,89.45c0-1.435,0.212-2.578,0.635-3.431c0.424-0.852,0.974-1.502,1.652-1.949
		c0.677-0.447,1.449-0.733,2.315-0.858c0.865-0.125,1.741-0.187,2.625-0.187h4.065c2.258,0,3.872,0.479,4.842,1.435
		c0.969,0.957,1.454,2.277,1.454,3.961v0.437h-2.258v-0.375c0-0.665-0.094-1.211-0.282-1.637c-0.188-0.426-0.457-0.759-0.805-0.998
		c-0.349-0.239-0.772-0.405-1.271-0.499c-0.499-0.094-1.049-0.141-1.651-0.141h-4.461c-0.564,0-1.115,0.042-1.651,0.125
		c-0.537,0.083-1.012,0.271-1.426,0.562c-0.414,0.292-0.744,0.723-0.988,1.294s-0.367,1.356-0.367,2.354v3.337
		c0,0.894,0.117,1.622,0.353,2.183c0.235,0.562,0.569,1.003,1.002,1.326c0.433,0.323,0.95,0.546,1.553,0.67
		c0.602,0.125,1.271,0.188,2.004,0.188h4.094c0.564,0,1.096-0.052,1.595-0.156c0.498-0.104,0.941-0.286,1.327-0.546
		c0.386-0.26,0.687-0.603,0.903-1.029s0.325-0.962,0.325-1.606v-0.53h2.259v0.468c0,0.998-0.118,1.851-0.353,2.558
		c-0.235,0.707-0.607,1.284-1.115,1.731c-0.508,0.447-1.162,0.775-1.962,0.982c-0.8,0.208-1.765,0.312-2.894,0.312h-5.477
		c-0.546,0-1.167-0.063-1.863-0.187c-0.697-0.125-1.355-0.411-1.977-0.858c-0.621-0.447-1.143-1.096-1.567-1.949
		c-0.423-0.853-0.635-1.996-0.635-3.431V89.45z"/>
	<path fill="#E6E6E5" d="M92.874,76.6h2.428v12.694h1.186l8.385-6.02h3.783l0.057,0.063l-9.938,7.049l11.829,8.733l-0.057,0.063
		h-3.783l-10.418-7.704h-1.044v7.704h-2.428V76.6z"/>
	<g>
		<g>
			<path fill="#E6E6E5" d="M6.96,111.761H4.129v-1.932H6.96v-3.339h2.174v3.339h8.621v1.932H9.134v7.01
				c0,0.662,0.055,1.21,0.164,1.642c0.11,0.432,0.291,0.782,0.544,1.048c0.252,0.267,0.585,0.456,0.999,0.566
				c0.413,0.11,0.914,0.166,1.504,0.166h0.683c0.725,0,1.306-0.05,1.745-0.152c0.438-0.101,0.775-0.285,1.011-0.552
				c0.236-0.267,0.392-0.635,0.467-1.104c0.076-0.469,0.114-1.071,0.114-1.808v-1.048h1.77v1.545c0,0.699-0.038,1.357-0.114,1.973
				c-0.076,0.617-0.278,1.155-0.607,1.615s-0.822,0.819-1.479,1.076s-1.576,0.386-2.755,0.386h-1.188
				c-1.011,0-1.845-0.124-2.502-0.373c-0.657-0.248-1.172-0.58-1.542-0.993c-0.371-0.414-0.628-0.888-0.771-1.421
				c-0.143-0.533-0.215-1.085-0.215-1.656V111.761z"/>
			<path fill="#E6E6E5" d="M20.788,103.924h2.174v8.334h0.051c0.202-0.552,0.459-0.998,0.771-1.338
				c0.312-0.34,0.683-0.607,1.112-0.8c0.43-0.193,0.923-0.327,1.479-0.4c0.556-0.073,1.171-0.11,1.845-0.11h3.11
				c1.011,0,1.862,0.129,2.553,0.386c0.691,0.258,1.243,0.607,1.656,1.049c0.413,0.441,0.708,0.952,0.885,1.532
				c0.177,0.58,0.266,1.182,0.266,1.808v9.521h-2.174v-8.941c0-0.515-0.05-0.984-0.151-1.407c-0.102-0.423-0.316-0.782-0.645-1.076
				c-0.329-0.294-0.805-0.524-1.428-0.69s-1.466-0.249-2.528-0.249h-0.556c-1.264,0-2.301,0.074-3.11,0.221
				c-0.809,0.148-1.445,0.387-1.909,0.718s-0.784,0.777-0.96,1.338c-0.177,0.562-0.266,1.256-0.266,2.083v8.003h-2.174V103.924z"/>
			<path fill="#E6E6E5" d="M40.203,115.293c0-1.27,0.185-2.281,0.556-3.036c0.371-0.754,0.855-1.329,1.454-1.725
				c0.598-0.395,1.272-0.648,2.022-0.759c0.75-0.11,1.512-0.166,2.288-0.166h3.489c0.978,0,1.875,0.083,2.692,0.249
				s1.521,0.474,2.111,0.924c0.59,0.451,1.053,1.072,1.391,1.863c0.337,0.791,0.506,1.813,0.506,3.063v1.573H42.377v0.883
				c0,0.81,0.092,1.472,0.278,1.987c0.185,0.515,0.484,0.924,0.897,1.228c0.413,0.303,0.952,0.515,1.618,0.635
				c0.666,0.12,1.47,0.179,2.414,0.179h2.983c0.674,0,1.255-0.032,1.745-0.097c0.489-0.064,0.893-0.188,1.213-0.373
				c0.32-0.184,0.56-0.441,0.721-0.772c0.16-0.332,0.256-0.763,0.291-1.297h2.174v0.276c0,0.81-0.148,1.481-0.443,2.014
				c-0.295,0.534-0.725,0.962-1.289,1.283c-0.565,0.322-1.248,0.552-2.048,0.69c-0.801,0.138-1.706,0.207-2.717,0.207h-3.944
				c-0.708,0-1.424-0.055-2.149-0.166c-0.725-0.11-1.378-0.368-1.959-0.772c-0.581-0.405-1.053-0.984-1.416-1.739
				c-0.363-0.754-0.543-1.784-0.543-3.091V115.293z M54.537,114.41c0-0.349-0.072-0.699-0.215-1.049
				c-0.144-0.349-0.384-0.657-0.721-0.924c-0.337-0.267-0.8-0.483-1.39-0.648c-0.59-0.166-1.323-0.249-2.2-0.249h-3.185
				c-0.86,0-1.567,0.051-2.124,0.152c-0.556,0.102-0.999,0.29-1.327,0.566s-0.565,0.662-0.708,1.159
				c-0.144,0.497-0.24,1.141-0.291,1.932h12.16V114.41z"/>
		</g>
	</g>
	<path fill="#E6E6E5" d="M65.535,111.59c0-1.166,0.102-2.176,0.306-3.03c0.204-0.854,0.551-1.568,1.04-2.143
		c0.49-0.575,1.138-1.002,1.946-1.281c0.808-0.279,1.815-0.418,3.023-0.418h9.179c1.093,0,1.995,0.123,2.705,0.368
		c0.709,0.245,1.276,0.575,1.701,0.989c0.424,0.414,0.722,0.9,0.893,1.458c0.171,0.558,0.257,1.141,0.257,1.75v1.572h-2.105v-0.837
		c0-0.777-0.11-1.386-0.331-1.826c-0.22-0.44-0.514-0.765-0.881-0.977c-0.367-0.211-0.795-0.342-1.285-0.393
		c-0.489-0.051-1.012-0.076-1.566-0.076h-8.323c-0.571,0-1.11,0.055-1.615,0.165c-0.506,0.11-0.947,0.308-1.322,0.596
		s-0.673,0.685-0.893,1.192c-0.22,0.507-0.331,1.158-0.331,1.953v6.898c0,0.795,0.11,1.446,0.331,1.953s0.518,0.905,0.893,1.192
		c0.375,0.288,0.816,0.486,1.322,0.596c0.505,0.11,1.044,0.165,1.615,0.165h8.396c0.799,0,1.469-0.051,2.007-0.152
		c0.539-0.101,0.967-0.274,1.285-0.52c0.318-0.245,0.542-0.571,0.673-0.976c0.131-0.406,0.196-0.921,0.196-1.547v-1.141h2.252v1.243
		c0,0.828-0.078,1.564-0.233,2.206c-0.155,0.643-0.453,1.179-0.894,1.61c-0.44,0.431-1.052,0.757-1.835,0.977
		c-0.784,0.22-1.795,0.33-3.036,0.33h-9.057c-1.208,0-2.215-0.14-3.023-0.419c-0.808-0.279-1.457-0.705-1.946-1.28
		c-0.489-0.575-0.836-1.289-1.04-2.143c-0.205-0.854-0.306-1.864-0.306-3.03V111.59z"/>
	<path fill="#E6E6E5" d="M89.988,115.135c0-1.099,0.171-1.998,0.514-2.696c0.343-0.697,0.82-1.251,1.432-1.662
		c0.612-0.41,1.342-0.689,2.191-0.837c0.848-0.148,1.77-0.223,2.766-0.223h3.011c0.995,0,1.917,0.074,2.766,0.223
		s1.579,0.428,2.191,0.837c0.611,0.41,1.089,0.964,1.432,1.662c0.343,0.698,0.514,1.597,0.514,2.696v2.932
		c0,1.099-0.171,1.998-0.514,2.695c-0.343,0.698-0.82,1.252-1.432,1.662c-0.612,0.41-1.343,0.689-2.191,0.837
		s-1.771,0.223-2.766,0.223h-3.011c-0.996,0-1.918-0.075-2.766-0.223c-0.85-0.148-1.58-0.427-2.191-0.837
		c-0.612-0.41-1.089-0.964-1.432-1.662c-0.343-0.697-0.514-1.596-0.514-2.695V115.135z M104.7,115.266
		c0-0.785-0.103-1.417-0.307-1.897c-0.204-0.479-0.489-0.854-0.856-1.125c-0.367-0.27-0.808-0.453-1.322-0.549
		c-0.514-0.096-1.073-0.144-1.677-0.144h-4.283c-0.62,0-1.184,0.048-1.689,0.144c-0.506,0.096-0.941,0.279-1.31,0.549
		c-0.367,0.271-0.652,0.646-0.856,1.125c-0.204,0.48-0.306,1.112-0.306,1.897v2.67c0,0.785,0.102,1.417,0.306,1.897
		s0.49,0.855,0.856,1.125c0.368,0.271,0.804,0.454,1.31,0.55c0.506,0.096,1.069,0.144,1.689,0.144h4.283
		c0.604,0,1.163-0.048,1.677-0.144c0.515-0.096,0.955-0.279,1.322-0.55c0.367-0.27,0.652-0.645,0.856-1.125s0.307-1.112,0.307-1.897
		V115.266z"/>
	<path fill="#E6E6E5" d="M125.751,123.275h-1.959v-2.12h-0.049c-0.31,0.82-0.865,1.414-1.664,1.78c-0.8,0.367-1.755,0.55-2.864,0.55
		h-2.938c-0.963,0-1.84-0.079-2.631-0.236c-0.792-0.157-1.474-0.44-2.044-0.851c-0.571-0.41-1.017-0.981-1.334-1.714
		c-0.318-0.733-0.478-1.675-0.478-2.827v-2.355c0-1.064,0.105-1.963,0.318-2.696c0.212-0.733,0.575-1.331,1.089-1.793
		c0.514-0.462,1.191-0.793,2.032-0.995c0.84-0.2,1.896-0.301,3.169-0.301h3.207c1.208,0,2.117,0.157,2.729,0.471
		s1.032,0.82,1.261,1.518h0.049v-7.381h2.105V123.275z M111.896,117.831c0,0.646,0.058,1.208,0.172,1.688
		c0.114,0.48,0.326,0.877,0.637,1.191c0.31,0.314,0.734,0.55,1.272,0.707c0.538,0.157,1.24,0.236,2.105,0.236h3.427
		c0.783,0,1.439-0.087,1.971-0.262c0.529-0.174,0.954-0.423,1.272-0.746c0.318-0.323,0.547-0.724,0.686-1.204
		s0.208-1.025,0.208-1.636v-2.539c0-0.802-0.106-1.448-0.318-1.937c-0.212-0.488-0.514-0.864-0.905-1.125s-0.874-0.436-1.444-0.523
		c-0.571-0.087-1.208-0.131-1.909-0.131h-2.84c-0.718,0-1.351,0.048-1.897,0.144c-0.547,0.096-0.999,0.275-1.358,0.537
		c-0.358,0.262-0.628,0.632-0.808,1.112s-0.27,1.104-0.27,1.871V117.831z"/>
	<path fill="#E6E6E5" d="M129.153,115.109c0-1.204,0.179-2.164,0.538-2.879s0.828-1.261,1.408-1.636
		c0.578-0.375,1.231-0.615,1.958-0.72c0.726-0.105,1.464-0.157,2.215-0.157h3.378c0.946,0,1.815,0.079,2.607,0.235
		c0.791,0.157,1.473,0.45,2.044,0.877c0.57,0.428,1.02,1.017,1.346,1.767c0.326,0.75,0.49,1.719,0.49,2.905v1.492h-13.88v0.837
		c0,0.768,0.09,1.396,0.27,1.884c0.18,0.489,0.469,0.877,0.869,1.165c0.399,0.288,0.922,0.488,1.566,0.602
		c0.645,0.114,1.424,0.17,2.338,0.17h2.889c0.652,0,1.215-0.03,1.688-0.092c0.474-0.061,0.865-0.179,1.175-0.353
		c0.311-0.174,0.543-0.419,0.698-0.733c0.154-0.314,0.248-0.724,0.281-1.23h2.105v0.262c0,0.768-0.144,1.404-0.429,1.91
		c-0.286,0.506-0.702,0.912-1.248,1.217c-0.547,0.305-1.208,0.523-1.983,0.654s-1.652,0.196-2.631,0.196h-3.818
		c-0.686,0-1.38-0.052-2.081-0.157c-0.702-0.104-1.334-0.349-1.897-0.733c-0.563-0.383-1.02-0.933-1.37-1.648
		c-0.352-0.715-0.526-1.692-0.526-2.932V115.109z M143.032,114.271c0-0.331-0.069-0.663-0.208-0.994s-0.371-0.624-0.697-0.877
		c-0.327-0.253-0.775-0.458-1.347-0.615c-0.571-0.157-1.281-0.235-2.13-0.235h-3.084c-0.832,0-1.518,0.048-2.057,0.144
		c-0.538,0.096-0.967,0.275-1.284,0.537c-0.318,0.262-0.548,0.628-0.686,1.099c-0.139,0.471-0.232,1.082-0.282,1.832h11.774V114.271
		z"/>
</g>
<path fill="#1761A0" d="M151.9,5v3.3l5.6,3.1l-5.6,3.1v3.3l9.6-5.3v-2.2L151.9,5z M135.5,15.4c-0.9-0.8-2.1-1.4-3.3-1.7l-6.7,3.7
	v2.3l10.3,5.7v-3.6l-6-3.3L135.5,15.4z M130.3,31.8c-5.8,0-10.5-4.7-10.5-10.4c0-5.8,4.7-10.4,10.5-10.4s10.5,4.7,10.5,10.4
	S136.1,31.8,130.3,31.8z M147.1,21.4c0-2.7-0.7-5.2-1.8-7.5L150,1.5h-3.3l-3.5,9.2c-3.1-3.7-7.7-6-12.9-6c-9.2,0-16.7,7.5-16.7,16.6
	S121.1,38,130.3,38c3.1,0,6.1-0.9,8.6-2.3l11.3,11.2l5.5-5.5l-11.2-11.2C146.1,27.7,147.1,24.6,147.1,21.4z"/>
<path fill="#595959" d="M151.9,68v3.3l5.6,3.1l-5.6,3.1v3.3l9.6-5.3v-2.2L151.9,68z M135.5,78.4c-0.9-0.8-2.1-1.4-3.3-1.7l-6.7,3.7
	v2.3l10.3,5.7v-3.6l-6-3.3L135.5,78.4z M130.3,94.8c-5.8,0-10.5-4.7-10.5-10.4c0-5.8,4.7-10.4,10.5-10.4s10.5,4.7,10.5,10.4
	C140.8,90.1,136.1,94.8,130.3,94.8z M147.1,84.4c0-2.7-0.7-5.2-1.8-7.5l4.7-12.3h-3.3l-3.5,9.2c-3.1-3.7-7.7-6-12.9-6
	c-9.2,0-16.7,7.5-16.7,16.6s7.5,16.6,16.7,16.6c3.1,0,6.1-0.9,8.6-2.3l11.3,11.2l5.5-5.5l-11.2-11.2
	C146.1,90.7,147.1,87.6,147.1,84.4z"/>
</svg>
